<svg width="500" height="500" xmlns="http://www.w3.org/2000/svg" clip-rule="evenodd" xml:space="preserve" version="1.1">

 <g>
  <title>Layer 1</title>
  <circle id="svg_1" stroke-width="8px" stroke="rgb(51,51,51)" fill="none" r="210" cy="250" cx="250"/>
  <path id="svg_2" fill-rule="nonzero" fill="rgb(51,51,51)" d="m250,41.7c3.3,0 6.6,0.1 9.8,0.3l0,-30l-19.8,0l0,30c3.4,-0.2 6.7,-0.3 10,-0.3z"/>
  <g id="svg_3">
   <path id="svg_4" stroke-linejoin="round" stroke-width="0.5px" stroke="rgb(240,70,34)" fill-rule="nonzero" fill="rgb(240,70,34)" d="m256,26.3l-6,-4.5l-6,4.5l6,12.6l6,-12.6z"/>
  </g>
  <g stroke="null">
   <path stroke="null" fill="#BF5AF2" d="m254.28709,239.02446c0.49286,-0.02047 0.73265,-0.0405 1.21844,-0.081l0.02102,-0.00196l0,-2.19535c0.69438,-0.05659 1.05275,-0.09592 1.68542,-0.16527l0.19378,-0.02119c0.25594,-0.29749 0.44397,-0.51326 0.63355,-0.73116c0.18029,-0.20712 0.36235,-0.41614 0.6059,-0.69917c-1.23945,0.16599 -1.85907,0.22591 -3.11865,0.33144l0,-1.55623c1.45934,-0.14515 2.17828,-0.22591 3.59846,-0.43537c0.03982,0.03107 0.06504,0.05703 0.08981,0.08298c0.025,0.02596 0.04977,0.05193 0.08981,0.08301l0.13295,-0.01968l0.01416,-0.00205l0.00664,-0.001l0.00531,-0.00072l0.01416,-0.00207c0.45039,-0.06691 0.72513,-0.1077 1.20627,-0.18171l0,-1.47216c-2.05904,0.33207 -2.92288,0.44218 -5.00138,0.62856c-0.49972,0.56014 -0.89569,0.99048 -1.39563,1.52912l0,4.91099z"/>
   <path stroke="null" fill="#BF5AF2" d="m242.72323,238.56124c2.23402,0.21585 2.97884,0.23785 2.97884,0.23785l0,-1.22787c-0.95763,-0.05927 -1.44894,-0.09934 -2.40413,-0.17855c-2.46851,-0.2375 -2.74546,-1.18699 -2.74546,-2.09932c0,-0.93064 0.59595,-1.70319 2.66008,-1.50524c0.58466,0.0574 0.86936,0.07726 1.28878,0.10644c0.1606,0.01115 0.34177,0.02382 0.5663,0.04035c0.2628,-0.22554 0.45747,-0.39694 0.65125,-0.56767c0.19776,-0.17426 0.39553,-0.34833 0.66386,-0.57828c-1.51066,-0.0793 -2.10594,-0.12943 -3.61704,-0.26973c-1.44916,-0.15863 -2.48974,0.09871 -3.06423,0.85131c-0.29775,0.41597 -0.46831,0.99056 -0.46831,1.74317c0,0.75263 0.14888,1.36655 0.46831,1.86128c0.55369,0.9329 1.59605,1.44758 3.02176,1.58626z"/>
   <path stroke="null" fill="#BF5AF2" d="m249.52174,239.02511l0,-4.90911c-1.60799,0 -2.28225,-0.03406 -3.89046,-0.13374l0.04734,-0.04205c0.49087,-0.43456 0.74372,-0.65847 1.24941,-1.12646c3.36309,0.16061 4.76801,0.14794 8.11052,-0.11343c-0.52228,0.54313 -0.77159,0.80075 -1.29387,1.32413c0,0 -1.17287,0.07123 -2.92774,0.09154l0,4.90911l-1.2952,0z"/>
   <path stroke="null" fill="#BF5AF2" d="m234.81211,245.71002c-10.22119,-1.74243 -17.54944,-11.24869 -17.54944,-21.54501c1.69035,7.42904 5.19581,9.98106 5.35214,10.09486l0.00504,0.00368c-5.36035,-5.56526 -4.57352,-15.69765 -4.57352,-15.69765c0,0 1.79034,15.91098 17.03714,21.78967c-0.0657,-1.18543 -0.11625,-2.42621 -0.11625,-3.45468c0,-1.84124 0.06625,-2.80727 0.11698,-3.5482c0.03157,-0.46089 0.05714,-0.83463 0.05714,-1.27762c0,-0.384 -0.10112,-0.75298 -0.22559,-1.20731c-0.25019,-0.91285 -0.59493,-2.17026 -0.40349,-4.58656c0,0 7.07881,1.66746 15.48664,1.66746c8.40849,0 15.48662,-1.66746 15.48662,-1.66746c0.19223,2.41909 -0.15264,3.67811 -0.40261,4.59124c-0.12432,0.45368 -0.22519,0.82205 -0.22519,1.20479c0,0.44192 0.02544,0.81486 0.05707,1.27501c0.05066,0.74076 0.11702,1.70733 0.11702,3.55082c0,1.02847 -0.05066,2.26927 -0.1168,3.4547c15.24837,-5.88086 17.03886,-21.79518 17.03886,-21.79518c0,0 0.78287,10.1344 -4.57467,15.69794c0,0 3.62854,-2.49606 5.35754,-10.09549c0,10.29632 -7.32743,19.80258 -17.55451,21.54675c0,0 -1.70223,5.52256 -9.46567,6.90026c0,0 0.00376,0.00523 0.0115,0.01502c0.00575,0.0074 0.01416,0.01764 0.025,0.03005c0.91914,0.83986 2.16279,1.61091 3.83692,2.17444c0.70213,0.22777 1.41753,0.41285 2.14244,0.55461c0,0 -1.80996,0.60208 -3.43565,0.60208c-0.87246,0 -2.2661,-0.25085 -3.5363,-0.99076c-0.87135,1.09702 -2.22119,3.40734 -1.78408,8.63724c-0.07433,-0.16309 -0.7081,-1.60721 -1.241,-5.36033c0,0 -0.14379,2.05142 1.84071,12.04545c-1.56441,-8.00272 2.70498,-14.20422 2.70498,-14.20422c1.35559,0.52369 2.98482,0.28743 2.98482,0.28743c-4.08291,4.58123 -4.34925,11.75846 -4.06057,15.99347l0.78641,0.42788l1.05186,2.2598l-1.42306,0.75385l-1.21689,0.63126c-2.39595,-3.33331 -3.11157,-7.75645 -3.15249,-8.02929c0.02013,0.26914 0.37053,4.25939 2.74015,8.25335l-1.54649,0.81416c0,0 -1.46398,-3.03412 -1.48478,-4.88673c0,0 -0.05442,2.2193 1.03815,5.15151l-2.00108,1.06109l-2.00131,-1.06109c1.09478,-2.93265 1.03859,-5.15151 1.03859,-5.15151c-0.02079,1.85261 -1.48478,4.88673 -1.48478,4.88673l-1.54716,-0.81416c2.36962,-3.9933 2.72025,-7.98421 2.74104,-8.25335c-0.04115,0.27284 -0.75699,4.69598 -3.15338,8.02929l-1.21667,-0.63126l-1.42239,-0.75385l1.05164,-2.2598l0.78619,-0.42788c0.2889,-4.23392 0.02278,-11.41224 -4.06013,-15.99347c0,0 1.63011,0.23626 2.98393,-0.28743c0,0 4.27227,6.19932 2.70764,14.20248c1.98494,-9.99273 1.84115,-12.04524 1.84115,-12.04524c-0.53334,3.7516 -1.16689,5.19702 -1.241,5.36012c0.43712,-5.22968 -0.91294,-7.54 -1.78408,-8.63724c-1.27308,0.74013 -2.66627,0.99054 -3.53939,0.99054c-1.62502,0 -3.43565,-0.60164 -3.43565,-0.60164c0.72513,-0.14175 1.44053,-0.32706 2.14244,-0.55483c1.67413,-0.56571 2.91779,-1.33459 3.83692,-2.17444c0.02544,-0.02874 0.03716,-0.04486 0.03716,-0.04486c-7.7641,-1.37792 -9.4658,-6.90047 -9.4658,-6.90047zm15.18723,-14.68839c-7.31239,0 -11.80653,-0.87479 -11.80653,-0.87479c0,0 -1.0627,6.15997 -0.24267,11.0869c0.56807,3.39972 3.93912,6.8443 6.48218,8.15079c0.62183,0.29266 1.15628,0.47426 1.52459,0.52957c0.073,0.00958 0.14445,0.01829 0.21303,0.01829l0.02411,-0.0037c0.44773,-1.04345 0.5652,-1.96715 0.5652,-2.49628c0,-6.37461 -4.09021,-4.84253 -4.09021,-4.84253c0,0 -0.86782,-1.90639 1.12354,-1.90639c1.92853,0 4.77,1.34112 4.77,1.34112c0,0 -0.56984,0.36669 -0.28116,0.89604c0.08163,0.14219 0.16702,0.2859 0.25462,0.4331c0.55325,0.93153 1.18879,2.00177 1.46221,3.7209c0.27342,-1.72022 0.9094,-2.79089 1.46332,-3.72286l0.00265,-0.00414c0.08605,-0.14502 0.17033,-0.28678 0.25085,-0.42701c0.29001,-0.52935 -0.28094,-0.89604 -0.28094,-0.89604c0,0 2.84435,-1.33785 4.77066,-1.33785c1.99246,0 1.12354,1.90639 1.12354,1.90639c0,0 -4.09021,-1.53208 -4.09021,4.84253c0,0.5287 0.11569,1.45217 0.5652,2.49606l0.02411,0.00414c0.06858,-0.0024 0.13981,-0.00915 0.21281,-0.01851c0.36854,-0.05487 0.90277,-0.23669 1.52459,-0.52957c2.54593,-1.30976 5.91654,-4.75543 6.48351,-8.15406c0.82114,-4.92971 -0.24112,-11.0869 -0.24112,-11.0869c0,0 -4.49525,0.87479 -11.80786,0.87479z" clip-rule="evenodd" fill-rule="evenodd"/>
   <path stroke="null" fill="#BF5AF2" d="m280.10233,236.04833c0,0 -4.69722,8.27049 -14.50444,10.14749c0,0 -1.77346,5.07791 -8.82548,6.77984c0,0 2.69326,2.04684 6.64588,2.04684c6.65561,0 12.12685,-6.45888 13.07209,-9.75735c-3.56749,3.79929 -6.44878,4.32189 -6.44878,4.32189c4.87773,-2.48779 8.81818,-7.70506 10.06073,-13.53871z"/>
   <path stroke="null" fill="#BF5AF2" d="m223.5081,245.26516c0.94517,3.29847 6.41632,9.75735 13.07118,9.75735c3.9535,0 6.64676,-2.04684 6.64676,-2.04684c-7.05202,-1.70019 -8.82599,-6.77984 -8.82599,-6.77984c-9.80846,-1.877 -14.50402,-10.14749 -14.50402,-10.14749c1.24277,5.83366 5.18256,11.04875 10.06071,13.54067c0,0 -0.00175,-0.00022 -0.0052,-0.00087c-0.14638,-0.03092 -2.9701,-0.62363 -6.44344,-4.32298z"/>
   <path stroke="null" fill="#BF5AF2" d="m284.32615,230.03257c-0.15065,1.34776 -0.24355,2.17817 0.15972,3.38241c0.7811,2.33203 2.01414,6.64553 2.01414,11.8639c0,18.82203 -15.33265,36.15858 -36.5,36.15858c-21.16717,0 -36.5,-17.33654 -36.5,-36.15858c0,-5.21836 1.23202,-9.53187 2.01367,-11.8639c0.40338,-1.20343 0.31029,-2.03376 0.15918,-3.38134c-0.14171,-1.2638 -0.33441,-2.98253 -0.21646,-5.89055c0,2.81306 1.81602,8.22143 1.81602,8.22143c0,0 -2.49434,6.51275 -2.49434,12.91436c0,19.93974 16.3464,34.89432 35.21971,34.89432c18.87315,0 35.2225,-14.95197 35.2225,-34.89432c0,-6.40161 -2.49439,-12.91436 -2.49439,-12.91436c0,0 1.81615,-5.40837 1.81615,-8.22143c0.11791,2.90748 -0.07433,4.62587 -0.2159,5.88949z"/>
  </g>
 </g>
</svg>